<svg width="59" height="50" viewBox="0 0 59 50" fill="none" xmlns="http://www.w3.org/2000/svg">
<path d="M27.9324 43.6699L5.85752 23.8745C4.40148 22.5916 3.25458 21.0497 2.48904 19.3458C1.7235 17.6418 1.3559 15.8128 1.4094 13.974C1.4629 12.1351 1.93633 10.3262 2.79988 8.6611C3.66344 6.99603 4.8984 5.51089 6.42702 4.2992C7.95563 3.0875 9.74478 2.17551 11.6818 1.62064C13.6188 1.06577 15.6617 0.880053 17.6819 1.07518C19.7021 1.2703 21.6558 1.84203 23.4199 2.75438C25.1841 3.66673 26.7205 4.89993 27.9324 6.37632C30.2949 3.56329 33.7949 1.71522 37.6623 1.23868C41.5298 0.762145 45.4479 1.69617 48.5548 3.83528C51.6616 5.97439 53.7027 9.14336 54.229 12.6451C54.7553 16.1468 53.7237 19.6943 51.3612 22.5074M39.7055 41.0051H57.3654M48.5355 33.0102V49" stroke="white" stroke-width="2" stroke-linecap="round" stroke-linejoin="round"/>
</svg>
